<?xml version="1.0" standalone="no"?>
<!DOCTYPE svg PUBLIC "-//W3C//DTD SVG 20010904//EN"
 "http://www.w3.org/TR/2001/REC-SVG-20010904/DTD/svg10.dtd">
<svg version="1.0" xmlns="http://www.w3.org/2000/svg"
 width="1025.000000pt" height="1025.000000pt" viewBox="0 0 1025.000000 1025.000000"
 preserveAspectRatio="xMidYMid meet">
<metadata>
Created by potrace 1.14, written by Peter Selinger 2001-2017
</metadata>
<g transform="translate(0.000000,1025.000000) scale(0.100000,-0.100000)"
fill="#000000" stroke="none">
<path d="M5470 8568 c-52 -19 -190 -156 -2316 -2282 -1836 -1835 -2265 -2270
-2283 -2308 -32 -71 -29 -159 7 -219 36 -61 564 -570 623 -600 63 -33 165 -32
236 1 45 21 403 374 2310 2275 1791 1786 2260 2259 2276 2295 27 59 28 175 3
247 -16 47 -37 72 -204 231 -395 377 -402 382 -527 381 -45 0 -90 -7 -125 -21z"/>
<path d="M6230 6293 c-49 -17 -103 -69 -407 -393 -193 -206 -213 -239 -213
-351 0 -67 4 -85 35 -145 32 -64 133 -167 1432 -1466 1527 -1526 1433 -1439
1557 -1442 114 -2 123 4 423 313 149 154 280 294 290 313 13 25 18 55 18 123
0 81 -3 97 -33 161 -32 68 -81 118 -1430 1466 -1076 1074 -1408 1400 -1443
1417 -55 25 -160 27 -229 4z"/>
<path d="M4738 4766 c-20 -7 -54 -24 -76 -37 -53 -33 -2196 -2210 -2241 -2278
-34 -51 -36 -59 -36 -131 0 -67 3 -82 25 -112 14 -18 152 -156 307 -306 188
-181 297 -279 325 -292 58 -26 149 -26 208 1 35 15 214 188 775 749 654 653
734 729 768 736 89 16 69 32 766 -660 705 -702 668 -670 791 -670 118 0 118 0
423 303 317 315 332 336 332 456 -1 48 -7 83 -20 112 -14 30 -275 299 -900
929 -930 937 -1156 1158 -1220 1189 -51 24 -175 31 -227 11z"/>
</g>
</svg>
