<?xml version="1.0" standalone="no"?>
<!DOCTYPE svg PUBLIC "-//W3C//DTD SVG 20010904//EN"
 "http://www.w3.org/TR/2001/REC-SVG-20010904/DTD/svg10.dtd">
<svg version="1.0" xmlns="http://www.w3.org/2000/svg"
 width="317.000000pt" height="317.000000pt" viewBox="0 0 317.000000 317.000000"
 preserveAspectRatio="xMidYMid meet">
<metadata>
Created by potrace 1.14, written by Peter Selinger 2001-2017
</metadata>
<g transform="translate(0.000000,317.000000) scale(0.100000,-0.100000)"
fill="#000000" stroke="none">
<path d="M1455 3009 c-33 -11 -64 -21 -70 -22 -5 -1 -36 -20 -68 -41 -193
-128 -290 -376 -227 -578 11 -34 20 -64 20 -65 0 -1 -41 12 -92 29 -108 36
-59 48 -428 -104 -146 -60 -283 -116 -305 -125 -22 -9 -46 -23 -52 -32 -18
-21 -19 -1811 -1 -1829 7 -7 22 -12 35 -12 12 0 165 63 339 141 l317 140 58
-21 c33 -13 59 -27 59 -32 0 -5 4 -7 8 -4 8 5 325 -115 472 -178 30 -13 66
-27 79 -31 18 -5 96 25 331 130 l307 136 134 -59 c74 -33 154 -69 179 -80 148
-69 326 -142 344 -142 12 0 27 5 34 12 18 18 17 1808 0 1829 -7 9 -60 35 -118
59 -206 85 -230 97 -223 105 5 4 2 5 -5 1 -7 -4 -83 22 -175 60 -171 70 -175
71 -251 39 -17 -7 -18 -5 -12 16 39 136 29 244 -34 375 -66 137 -194 246 -339
288 -79 23 -239 21 -316 -5z m195 -390 c0 -5 5 -7 11 -4 12 8 72 -31 89 -59
72 -115 -34 -265 -166 -236 -21 5 -41 15 -45 22 -5 7 -9 9 -9 4 0 -18 -50 50
-61 82 -23 68 16 151 84 182 46 21 97 26 97 9z"/>
</g>
</svg>
